HIERARCHY
ROOT Hips
{
	OFFSET 0.000000 0.000000 0.000000
	CHANNELS 6 Xposition Yposition Zposition Zrotation Yrotation Xrotation 
	JOINT LHipJoint
	{
		OFFSET 0.000000 0.000000 0.000000
		CHANNELS 3 Zrotation Yrotation Xrotation
		JOINT LeftUpLeg
		{
			OFFSET 1.363060 -1.794630 0.839290
			CHANNELS 3 Zrotation Yrotation Xrotation
			JOINT LeftLeg
			{
				OFFSET 2.448110 -6.726130 0.000000
				CHANNELS 3 Zrotation Yrotation Xrotation
				JOINT LeftFoot
				{
					OFFSET 2.562200 -7.039590 0.000000
					CHANNELS 3 Zrotation Yrotation Xrotation
					JOINT LeftToeBase
					{
						OFFSET 0.157640 -0.433110 2.322550
						CHANNELS 3 Zrotation Yrotation Xrotation
						End Site
						{
							OFFSET 0.000000 0.000000 0.000000
						}
					}
				}
			}
		}
	}
	JOINT RHipJoint
	{
		OFFSET 0.000000 0.000000 0.000000
		CHANNELS 3 Zrotation Yrotation Xrotation
		JOINT RightUpLeg
		{
			OFFSET -1.305520 -1.794630 0.839290
			CHANNELS 3 Zrotation Yrotation Xrotation
			JOINT RightLeg
			{
				OFFSET -2.542530 -6.985550 0.000000
				CHANNELS 3 Zrotation Yrotation Xrotation
				JOINT RightFoot
				{
					OFFSET -2.568260 -7.056230 0.000000
					CHANNELS 3 Zrotation Yrotation Xrotation
					JOINT RightToeBase
					{
						OFFSET -0.164730 -0.452590 2.363150
						CHANNELS 3 Zrotation Yrotation Xrotation
						End Site
						{
							OFFSET 0.000000 0.000000 0.000000
						}
					}
				}
			}
		}
	}
	JOINT LowerBack
	{
		OFFSET 0.000000 0.000000 0.000000
		CHANNELS 3 Zrotation Yrotation Xrotation
		JOINT Spine
		{
			OFFSET 0.028270 2.035590 -0.193380
			CHANNELS 3 Zrotation Yrotation Xrotation
			JOINT Spine1
			{
				OFFSET 0.056720 2.048850 -0.042750
				CHANNELS 3 Zrotation Yrotation Xrotation
				JOINT Neck
				{
					OFFSET 0.000000 0.000000 0.000000
					CHANNELS 3 Zrotation Yrotation Xrotation
					JOINT Neck1
					{
						OFFSET -0.054170 1.746240 0.172020
						CHANNELS 3 Zrotation Yrotation Xrotation
						JOINT Head
						{
							OFFSET 0.104070 1.761360 -0.123970
							CHANNELS 3 Zrotation Yrotation Xrotation
							End Site
							{
								OFFSET 0.000000 0.000000 0.000000
							}
						}
					}
				}
				JOINT LeftShoulder
				{
					OFFSET 0.000000 0.000000 0.000000
					CHANNELS 3 Zrotation Yrotation Xrotation
					JOINT LeftArm
					{
						OFFSET 3.362410 1.200890 -0.311210
						CHANNELS 3 Zrotation Yrotation Xrotation
						JOINT LeftForeArm
						{
							OFFSET 4.983000 -0.000000 -0.000000
							CHANNELS 3 Zrotation Yrotation Xrotation
							JOINT LeftHand
							{
								OFFSET 3.483560 -0.000000 -0.000000
								CHANNELS 3 Zrotation Yrotation Xrotation
								JOINT LeftFingerBase
								{
									OFFSET 0.000000 0.000000 0.000000
									CHANNELS 3 Zrotation Yrotation Xrotation
									JOINT LeftHandIndex1
									{
										OFFSET 0.715260 -0.000000 -0.000000
										CHANNELS 3 Zrotation Yrotation Xrotation
										End Site
										{
											OFFSET 0.000000 0.000000 0.000000
										}
									}
								}
								JOINT LThumb
								{
									OFFSET 0.000000 0.000000 0.000000
									CHANNELS 3 Zrotation Yrotation Xrotation
									End Site
									{
										OFFSET 0.000000 0.000000 0.000000
									}
								}
							}
						}
					}
				}
				JOINT RightShoulder
				{
					OFFSET 0.000000 0.000000 0.000000
					CHANNELS 3 Zrotation Yrotation Xrotation
					JOINT RightArm
					{
						OFFSET -3.136600 1.374050 -0.404650
						CHANNELS 3 Zrotation Yrotation Xrotation
						JOINT RightForeArm
						{
							OFFSET -5.241900 -0.000000 -0.000000
							CHANNELS 3 Zrotation Yrotation Xrotation
							JOINT RightHand
							{
								OFFSET -3.444170 -0.000000 -0.000000
								CHANNELS 3 Zrotation Yrotation Xrotation
								JOINT RightFingerBase
								{
									OFFSET 0.000000 0.000000 0.000000
									CHANNELS 3 Zrotation Yrotation Xrotation
									JOINT RightHandIndex1
									{
										OFFSET -0.622530 -0.000000 -0.000000
										CHANNELS 3 Zrotation Yrotation Xrotation
										End Site
										{
											OFFSET 0.000000 0.000000 0.000000
										}
									}
								}
								JOINT RThumb
								{
									OFFSET 0.000000 0.000000 0.000000
									CHANNELS 3 Zrotation Yrotation Xrotation
									End Site
									{
										OFFSET 0.000000 0.000000 0.000000
									}
								}
							}
						}
					}
				}
			}
		}
	}
}
MOTION
Frames: 9
Frame Time: 0.008333
-1.990274 17.246667 1.700830 -144.621561 -86.467957 160.638991 -9.110098 -0.427848 -1.519522 -10.327276 -4.408127 -21.741058 -1.900726 -0.029806 14.071576 1.509340 8.025713 -7.160572 0.157200 0.000000 -30.993200 10.138068 2.281536 -1.290905 0.062411 8.823021 -39.132158 -1.121324 -3.345018 51.872621 -1.597532 -6.162072 16.491671 -2.266700 0.000000 -78.809700 -7.735081 -0.471049 5.869032 -2.870857 -0.143275 -2.063492 -8.652160 -0.253146 -0.763329 10.975089 1.732231 1.554431 -4.895523 -0.416462 2.089114 0.000000 0.000000 0.000000 -1.819996 -8.008867 2.726363 -54.541999 -8.941342 10.420543 -4.181678 -17.431079 0.003727 2.612043 -2.115242 -0.050564 -0.111635 0.032158 -0.000000 0.000000 0.000000 0.000000 0.000000 0.000000 0.000000 21.793372 0.758302 0.685816 72.030180 14.029388 4.940416 2.365284 21.332343 0.005520 -0.575764 10.537960 -0.056294 0.032274 -0.119673 0.000000 0.000000 0.000000 0.000000 0.000000 0.000000 0.000000 
-1.978834 17.245020 1.710984 -134.519082 -86.305521 150.008495 -8.840309 -0.320265 -1.545744 -10.000461 -4.523178 -21.258099 -1.879171 0.026035 14.344091 1.521181 8.051758 -7.304297 0.132100 0.000000 -31.068900 10.448245 2.561954 -1.384189 0.424620 8.510890 -40.020554 -1.251322 -3.428140 53.992721 -1.697247 -6.256188 18.510731 -2.394100 0.000000 -78.449000 -7.438501 -0.423920 6.010910 -2.824425 -0.108091 -2.036291 -8.708572 -0.216718 -0.769581 10.856418 1.689174 1.603483 -4.909060 -0.416892 2.100000 0.000000 0.000000 0.000000 -1.983370 -8.053715 2.724889 -54.295246 -9.326494 10.418517 -4.184842 -17.319465 0.003627 2.645466 -2.116602 -0.051162 -0.110712 0.033298 -0.000000 0.000000 0.000000 0.000000 0.000000 0.000000 0.000000 21.682245 0.712930 0.658166 72.056268 13.962145 4.895731 2.362815 21.424609 0.005565 -0.587727 10.541262 -0.057393 0.032613 -0.119172 0.000000 0.000000 0.000000 0.000000 0.000000 0.000000 0.000000 
-1.967182 17.243931 1.721560 -122.482687 -86.104230 137.453293 -8.535985 -0.276944 -1.598986 -9.640317 -4.658050 -20.741853 -1.850964 0.054983 14.622772 1.523488 8.044945 -7.422362 0.109500 0.000000 -31.163399 10.773500 2.771605 -1.470838 0.817172 8.141184 -40.953213 -1.333902 -3.552031 56.031717 -1.815591 -6.424961 20.500419 -2.556100 -0.000000 -77.966800 -7.020623 -0.430627 6.178229 -2.754501 -0.127316 -1.998145 -8.766459 -0.233281 -0.769232 10.731500 1.641812 1.651385 -4.923990 -0.417278 2.109950 0.000000 0.000000 0.000000 -2.152790 -8.110133 2.733027 -54.079597 -9.787060 10.382812 -4.188167 -17.128948 0.003495 2.696741 -2.128233 -0.052461 -0.109734 0.035269 -0.000000 0.000000 0.000000 0.000000 0.000000 0.000000 0.000000 21.567556 0.631537 0.623600 72.069608 13.889820 4.837544 2.361011 21.517549 0.005599 -0.597982 10.548192 -0.058395 0.032864 -0.118341 0.000000 0.000000 0.000000 0.000000 0.000000 0.000000 0.000000 
-1.955192 17.243502 1.732560 -109.791660 -85.865882 124.250265 -8.281739 -0.320120 -1.673574 -9.280419 -4.810625 -20.193742 -1.811937 0.056993 14.898719 1.515110 8.005373 -7.508318 0.089600 -0.000000 -31.278500 11.037433 2.876796 -1.562198 1.202671 7.703835 -41.937966 -1.372240 -3.717311 57.991417 -1.941932 -6.652564 22.410998 -2.752100 -0.000000 -77.423900 -6.586764 -0.499110 6.372108 -2.679497 -0.205036 -1.950518 -8.820366 -0.306866 -0.769146 10.602518 1.596459 1.704850 -4.940060 -0.417743 2.120807 0.000000 0.000000 0.000000 -2.320150 -8.215688 2.753902 -53.898640 -10.272294 10.272791 -4.192503 -16.888318 0.003324 2.757720 -2.144402 -0.054058 -0.108752 0.038001 0.000000 0.000000 0.000000 0.000000 0.000000 0.000000 0.000000 21.453265 0.518604 0.585280 72.070383 13.803317 4.759336 2.357895 21.611692 0.005595 -0.605078 10.557991 -0.059197 0.032866 -0.117243 0.000000 0.000000 0.000000 0.000000 0.000000 0.000000 0.000000 
-1.942729 17.243766 1.743983 -98.166513 -85.579713 112.116480 -8.132907 -0.429765 -1.755364 -8.943792 -4.963045 -19.625709 -1.763324 0.044619 15.150705 1.499404 7.946931 -7.563352 0.072601 0.000000 -31.414099 11.194121 2.899195 -1.666073 1.556478 7.223327 -42.971243 -1.385074 -3.902479 59.879732 -2.064556 -6.917292 24.190840 -2.975500 0.000001 -76.859600 -6.230548 -0.606175 6.583486 -2.617046 -0.316360 -1.895601 -8.867908 -0.412438 -0.763029 10.469608 1.548682 1.751668 -4.957673 -0.418224 2.129237 0.000000 0.000000 0.000000 -2.485172 -8.309450 2.782446 -53.746567 -10.843708 10.129185 -4.200700 -16.569388 0.003136 2.826255 -2.170151 -0.056054 -0.108015 0.041458 0.000000 0.000000 0.000000 0.000000 0.000000 0.000000 0.000000 21.347145 0.384907 0.542551 72.056921 13.718194 4.673699 2.352977 21.703570 0.005554 -0.611089 10.569041 -0.059703 0.032653 -0.115994 0.000000 0.000000 0.000000 0.000000 0.000000 0.000000 0.000000 
-1.929813 17.244840 1.755747 -88.737885 -85.247598 102.181963 -8.085952 -0.565519 -1.833062 -8.629419 -5.090640 -19.049140 -1.709952 0.031641 15.359337 1.480387 7.881417 -7.592623 0.058801 0.000000 -31.570700 11.251736 2.887445 -1.780664 1.878762 6.739943 -44.042835 -1.391698 -4.084104 61.695774 -2.175768 -7.200732 25.796964 -3.216300 0.000000 -76.393900 -5.977281 -0.718008 6.798378 -2.573103 -0.428629 -1.842707 -8.909961 -0.519061 -0.766893 10.332288 1.510119 1.803737 -4.977570 -0.418943 2.139007 0.000000 0.000000 0.000000 -2.635748 -8.451053 2.815462 -53.631816 -11.380318 9.873410 -4.208139 -16.245051 0.002916 2.891024 -2.194883 -0.058053 -0.107142 0.045227 0.000000 0.000000 0.000000 0.000000 0.000000 0.000000 0.000000 21.252063 0.259509 0.507222 72.026599 13.620776 4.574021 2.347286 21.791314 0.005492 -0.613032 10.579439 -0.060009 0.032305 -0.114896 0.000000 0.000000 0.000000 0.000000 0.000000 0.000000 0.000000 
-1.916282 17.246725 1.767849 -81.696322 -84.882176 94.637494 -8.107226 -0.698568 -1.904521 -8.323421 -5.178624 -18.471604 -1.655885 0.025185 15.515258 1.460555 7.814244 -7.601449 0.048200 -0.000000 -31.745500 11.243362 2.878686 -1.901654 2.181420 6.281723 -45.148445 -1.402904 -4.251864 63.434520 -2.270606 -7.478146 27.182308 -3.455400 -0.000000 -76.016600 -5.799949 -0.815533 7.011656 -2.543286 -0.524414 -1.791174 -8.950291 -0.609152 -0.769522 10.190736 1.475382 1.844714 -5.000407 -0.419735 2.145544 0.000000 0.000000 0.000000 -2.778444 -8.555673 2.847905 -53.544286 -11.980831 9.579870 -4.216780 -15.871780 0.002682 2.951923 -2.224904 -0.060151 -0.106338 0.049410 0.000000 0.000000 0.000000 0.000000 0.000000 0.000000 0.000000 21.173668 0.148813 0.475460 71.976110 13.531974 4.478091 2.341912 21.872254 0.005433 -0.612381 10.586477 -0.059914 0.031949 -0.113957 0.000000 0.000000 0.000000 0.000000 0.000000 0.000000 0.000000 
-1.901243 17.249749 1.790514 -61.546468 -83.955998 74.119246 -8.482378 -1.155990 -1.817337 -7.618826 -6.131888 -18.246675 -1.502031 -0.028220 16.223262 1.400740 7.533154 -7.670063 0.018700 0.000000 -31.968900 10.897963 2.436569 -2.232718 2.868826 4.735208 -46.300757 -1.311701 -4.555641 64.892597 -2.330862 -7.768924 28.233350 -3.705900 0.000001 -75.753200 -5.225025 -1.315078 7.338319 -2.423005 -1.034214 -1.695936 -8.972951 -1.105741 -0.751454 10.018978 1.482500 1.931928 -5.020284 -0.419858 2.169672 0.000000 0.000000 0.000000 -3.091477 -8.907858 2.974923 -53.461908 -12.663076 9.235452 -4.232861 -15.432510 0.002274 2.999105 -2.249894 -0.062040 -0.106350 0.057723 0.000000 0.000000 0.000000 0.000000 0.000000 0.000000 0.000000 21.019404 -0.179434 0.404205 71.837580 13.405560 4.393881 2.333367 21.978430 0.005228 -0.610538 10.587430 -0.059628 0.030773 -0.110502 0.000000 0.000000 0.000000 0.000000 0.000000 0.000000 0.000000 
-1.886016 17.253427 1.803110 -60.297701 -83.543653 72.374641 -8.568926 -1.222882 -1.873073 -7.296448 -6.107854 -17.681768 -1.455562 -0.007027 16.258477 1.383616 7.468156 -7.650161 0.014500 -0.000000 -32.172500 10.828125 2.509189 -2.356314 3.156947 4.388909 -47.455871 -1.356826 -4.672709 66.447916 -2.384396 -7.958206 29.091036 -3.877600 0.000001 -75.678101 -5.140957 -1.343109 7.537140 -2.412300 -1.059895 -1.655373 -9.016975 -1.127733 -0.764516 9.873172 1.467888 1.958602 -5.050216 -0.420926 2.172299 0.000000 0.000000 0.000000 -3.208723 -8.974048 3.002055 -53.424313 -13.293775 8.846708 -4.237447 -15.044075 0.002006 3.038280 -2.280120 -0.063740 -0.105270 0.062298 0.000000 0.000000 0.000000 0.000000 0.000000 0.000000 0.000000 20.983256 -0.228005 0.391131 71.739127 13.335587 4.316647 2.331140 22.039015 0.005206 -0.600330 10.581683 -0.058632 0.030578 -0.110149 0.000000 0.000000 0.000000 0.000000 0.000000 0.000000 0.000000 
